<svg xmlns="http://www.w3.org/2000/svg" width="100vw" height="100vh" viewBox="0 0 1024 1024" preserveAspectRatio="xMidYMid slice" style="display:block">
  <defs>
    <linearGradient id="background" x1="0" y1="0" x2="1" y2="1">
      <stop offset="0" stop-color="#FFFFFF"/>
      <stop offset="1" stop-color="#EAF5E8"/>
    </linearGradient>
    <linearGradient id="leaf" x1="0" y1="0" x2="1" y2="0">
      <stop offset="0" stop-color="#8CC63F"/>
      <stop offset="1" stop-color="#006838"/>
    </linearGradient>
  </defs>
  <rect width="1024" height="1024" fill="url(#background)"/>
  <circle cx="820" cy="190" r="180" fill="#8CC63F" opacity=".08"/>
  <circle cx="180" cy="860" r="220" fill="#006838" opacity=".05"/>
  <g transform="translate(166 166) scale(6.4)">
    <path d="M20 69V35c0-11 7-17 18-17h37" fill="none" stroke="#064928" stroke-width="9" stroke-linecap="round" stroke-linejoin="round"/>
    <path d="M86 30v32" fill="none" stroke="#8CC63F" stroke-width="9" stroke-linecap="round"/>
    <rect x="31" y="57" width="13" height="19" rx="2.5" fill="#064928"/>
    <rect x="50" y="43" width="13" height="33" rx="2.5" fill="#006838"/>
    <rect x="69" y="31" width="13" height="45" rx="2.5" fill="#8CC63F"/>
    <path d="M15 84c24-4 51-12 75-21-6 19-22 28-43 30-17 1-27-3-32-9Z" fill="url(#leaf)"/>
  </g>
</svg>
